# xmcd CD database file
#
# Track frame offsets:
#	150
#	12328
#	35316
#
# Disc length: 739 seconds
#
# Revision: 0
# Processed by: cddbd v1.5.1PL2 Copyright (c) Steve Scherf et al.
# Submitted via: CDex 1.51
#
DISCID=1802e103
DTITLE=ma-maルビー - INSTITUT SAMBA
DYEAR=2005
DGENRE=Pop
TTITLE0=thinking
TTITLE1=Sparkle Island
TTITLE2=D.R.M. 1977
EXTD=YEAR: 2005
EXTT0=
EXTT1=
EXTT2=
PLAYORDER=
